<svg viewBox="0 0 102.25 122.88" xmlns="http://www.w3.org/2000/svg">
  <path fill="none"
    d="M95.73 16.26C84.32-.07 61.78-4.91 45.49 5.47L16.87 23.71A32.83 32.83 0 002 45.69a35.13 35.13 0 00-.55 6.14 34.69 34.69 0 004 16.06A33 33 0 00.54 80.16a35 35 0 006 26.46c11.41 16.33 34 21.17 50.24 10.79l28.59-18.24a32.76 32.76 0 0014.83-22 34.08 34.08 0 00.55-6.13A34.72 34.72 0 0096.8 55a33 33 0 004.91-12.26 36 36 0 00.54-6.13 34.93 34.93 0 00-6.52-20.33zm0 0z">
  </path>
  <path fill="currentColor"
    d="M42.69 108.16a22.94 22.94 0 01-5.72.73 22.7 22.7 0 01-18.67-9.78 21 21 0 01-3.92-12.23 21.6 21.6 0 01.32-3.68 20.52 20.52 0 01.69-2.67l.54-1.64L17.39 80a37.13 37.13 0 0011.2 5.6l1.06.32-.1 1.06v.55a6.36 6.36 0 001.18 3.7 6.82 6.82 0 005.62 3 6.65 6.65 0 001.72-.22 6.28 6.28 0 001.76-.77l28.59-18.33a6 6 0 002.79-5.09A6.35 6.35 0 0070 66.13a6.85 6.85 0 00-5.63-2.94 6.65 6.65 0 00-1.72.22 6 6 0 00-1.75.77L50 71.14a21.06 21.06 0 01-5.81 2.55 23.06 23.06 0 01-5.72.73 22.73 22.73 0 01-18.67-9.77 21.05 21.05 0 01-3.92-12.23 21.6 21.6 0 01.32-3.68 19.82 19.82 0 018.92-13.23l28.62-18.23a21 21 0 015.81-2.56 23 23 0 015.72-.72A22.74 22.74 0 0184 23.76 21.05 21.05 0 0187.87 36a21.72 21.72 0 01-.32 3.69 20.52 20.52 0 01-.69 2.67L86.32 44l-1.46-1.07a36.9 36.9 0 00-11.2-5.6L72.6 37l.1-1.06v-.55a6.42 6.42 0 00-1.18-3.71 6.85 6.85 0 00-5.62-2.94 6.65 6.65 0 00-1.7.26 5.89 5.89 0 00-1.76.77L33.82 48a6 6 0 00-2.69 4 6.92 6.92 0 00-.13 1.06 6.35 6.35 0 001.18 3.69 6.84 6.84 0 005.62 2.94 6.65 6.65 0 001.72-.22 6 6 0 001.76-.77l10.92-7a20.93 20.93 0 015.81-2.55 23 23 0 015.72-.73 22.74 22.74 0 0118.68 9.77 21.05 21.05 0 013.92 12.23 20.64 20.64 0 01-.33 3.72 19.78 19.78 0 01-8.92 13.23L48.51 105.6a21 21 0 01-5.82 2.56zm0 0z">
  </path>
</svg>